<svg width="22" height="21" viewBox="0 0 23 22" fill="none" xmlns="http://www.w3.org/2000/svg">
<path d="M10.4062 21.3417L1.05623 11.9917C0.914565 11.85 0.813981 11.6965 0.754481 11.5313C0.694981 11.366 0.665704 11.1889 0.666648 11C0.666648 10.8111 0.696398 10.634 0.755898 10.4688C0.815398 10.3035 0.915509 10.15 1.05623 10.0083L10.4062 0.658338C10.666 0.398615 10.9908 0.263088 11.3809 0.251755C11.771 0.240421 12.1072 0.375949 12.3896 0.658338C12.6729 0.91806 12.8207 1.24295 12.833 1.633C12.8453 2.02306 12.7093 2.35928 12.425 2.64167L5.48331 9.58334H21.3146C21.716 9.58334 22.0526 9.71934 22.3246 9.99134C22.5966 10.2633 22.7322 10.5996 22.7312 11C22.7312 11.4014 22.5957 11.7381 22.3246 12.0101C22.0536 12.2821 21.7169 12.4176 21.3146 12.4167H5.48331L12.425 19.3583C12.6847 19.6181 12.8207 19.9486 12.833 20.35C12.8453 20.7514 12.7093 21.0819 12.425 21.3417C12.1653 21.625 11.8347 21.7667 11.4333 21.7667C11.0319 21.7667 10.6896 21.625 10.4062 21.3417Z" fill="white"/>
</svg>
