<svg width="31" height="31" viewBox="0 0 31 31" fill="none" xmlns="http://www.w3.org/2000/svg">
<path d="M30.0834 15.5003C30.0834 17.4154 29.7062 19.3118 28.9733 21.0811C28.2404 22.8505 27.1662 24.4581 25.812 25.8123C24.4578 27.1665 22.8502 28.2407 21.0808 28.9736C19.3115 29.7064 17.4152 30.0837 15.5 30.0837C11.6323 30.0837 7.92297 28.5472 5.18807 25.8123C2.45316 23.0774 0.916709 19.3681 0.916709 15.5003C0.916709 13.5852 1.29392 11.6889 2.0268 9.91952C2.75968 8.15019 3.83388 6.54254 5.18807 5.18835C7.92297 2.45345 11.6323 0.916992 15.5 0.916992C19.3678 0.916992 23.0771 2.45345 25.812 5.18835C28.5469 7.92326 30.0834 11.6326 30.0834 15.5003ZM27.1667 15.5003C27.1667 12.4061 25.9375 9.43867 23.7496 7.25075C21.5617 5.06282 18.5942 3.83366 15.5 3.83366C12.4058 3.83366 9.43839 5.06282 7.25046 7.25075C5.06254 9.43867 3.83338 12.4061 3.83338 15.5003C3.83338 18.5945 5.06254 21.562 7.25046 23.7499C9.43839 25.9378 12.4058 27.167 15.5 27.167C18.5942 27.167 21.5617 25.9378 23.7496 23.7499C25.9375 21.562 27.1667 18.5945 27.1667 15.5003ZM17.6875 15.5003C17.6875 16.0805 17.4571 16.6369 17.0468 17.0471C16.6366 17.4574 16.0802 17.6878 15.5 17.6878C14.9199 17.6878 14.3635 17.4574 13.9532 17.0471C13.543 16.6369 13.3125 16.0805 13.3125 15.5003C13.3125 14.9202 13.543 14.3638 13.9532 13.9535C14.3635 13.5433 14.9199 13.3128 15.5 13.3128C16.0802 13.3128 16.6366 13.5433 17.0468 13.9535C17.4571 14.3638 17.6875 14.9202 17.6875 15.5003ZM17.6875 8.93783C17.6875 9.51799 17.4571 10.0744 17.0468 10.4846C16.6366 10.8949 16.0802 11.1253 15.5 11.1253C14.9199 11.1253 14.3635 10.8949 13.9532 10.4846C13.543 10.0744 13.3125 9.51799 13.3125 8.93783C13.3125 8.35766 13.543 7.80126 13.9532 7.39103C14.3635 6.98079 14.9199 6.75033 15.5 6.75033C16.0802 6.75033 16.6366 6.98079 17.0468 7.39103C17.4571 7.80126 17.6875 8.35766 17.6875 8.93783ZM17.6875 22.0628C17.6875 22.643 17.4571 23.1994 17.0468 23.6096C16.6366 24.0199 16.0802 24.2503 15.5 24.2503C14.9199 24.2503 14.3635 24.0199 13.9532 23.6096C13.543 23.1994 13.3125 22.643 13.3125 22.0628C13.3125 21.4827 13.543 20.9263 13.9532 20.516C14.3635 20.1058 14.9199 19.8753 15.5 19.8753C16.0802 19.8753 16.6366 20.1058 17.0468 20.516C17.4571 20.9263 17.6875 21.4827 17.6875 22.0628Z" fill="white" fill-opacity="0.61"/>
</svg>
